<svg width="22" height="22" viewBox="0 0 22 22" fill="currentColor" xmlns="http://www.w3.org/2000/svg">
<g clip-path="url(#clip0_2277_509)">
<path d="M10.9997 20.1667C5.93692 20.1667 1.83301 16.0628 1.83301 11C1.83301 5.93729 5.93692 1.83337 10.9997 1.83337C16.0624 1.83337 20.1663 5.93729 20.1663 11C20.1663 16.0628 16.0624 20.1667 10.9997 20.1667ZM10.9997 18.3334C12.9446 18.3334 14.8099 17.5608 16.1851 16.1855C17.5604 14.8102 18.333 12.945 18.333 11C18.333 9.05512 17.5604 7.18986 16.1851 5.81459C14.8099 4.43932 12.9446 3.66671 10.9997 3.66671C9.05475 3.66671 7.18949 4.43932 5.81422 5.81459C4.43896 7.18986 3.66634 9.05512 3.66634 11C3.66634 12.945 4.43896 14.8102 5.81422 16.1855C7.18949 17.5608 9.05475 18.3334 10.9997 18.3334ZM6.41634 11.9167H8.24967C8.24967 12.6461 8.53941 13.3455 9.05513 13.8613C9.57086 14.377 10.2703 14.6667 10.9997 14.6667C11.729 14.6667 12.4285 14.377 12.9442 13.8613C13.4599 13.3455 13.7497 12.6461 13.7497 11.9167H15.583C15.583 13.1323 15.1001 14.2981 14.2406 15.1576C13.381 16.0172 12.2153 16.5 10.9997 16.5C9.7841 16.5 8.61831 16.0172 7.75877 15.1576C6.89923 14.2981 6.41634 13.1323 6.41634 11.9167ZM7.33301 10.0834C6.96834 10.0834 6.6186 9.93851 6.36074 9.68065C6.10287 9.42278 5.95801 9.07305 5.95801 8.70837C5.95801 8.3437 6.10287 7.99396 6.36074 7.7361C6.6186 7.47824 6.96834 7.33337 7.33301 7.33337C7.69768 7.33337 8.04742 7.47824 8.30528 7.7361C8.56314 7.99396 8.70801 8.3437 8.70801 8.70837C8.70801 9.07305 8.56314 9.42278 8.30528 9.68065C8.04742 9.93851 7.69768 10.0834 7.33301 10.0834ZM14.6663 10.0834C14.3017 10.0834 13.9519 9.93851 13.6941 9.68065C13.4362 9.42278 13.2913 9.07305 13.2913 8.70837C13.2913 8.3437 13.4362 7.99396 13.6941 7.7361C13.9519 7.47824 14.3017 7.33337 14.6663 7.33337C15.031 7.33337 15.3807 7.47824 15.6386 7.7361C15.8965 7.99396 16.0413 8.3437 16.0413 8.70837C16.0413 9.07305 15.8965 9.42278 15.6386 9.68065C15.3807 9.93851 15.031 10.0834 14.6663 10.0834Z" fill="currentColor"/>
</g>
<defs>
<clipPath id="clip0_2277_509">
<rect width="22" height="22" fill="white"/>
</clipPath>
</defs>
</svg>
