<svg width="100%" height="100%" viewBox="0 0 24 24" fill="none" xmlns="http://www.w3.org/2000/svg">
<path fill-rule="evenodd" clip-rule="evenodd" d="M20.2307 10.2193H3.77776C3.3956 10.2193 3.08545 9.90918 3.08545 9.52702C3.08545 9.14487 3.3956 8.83472 3.77776 8.83472H20.2307C20.6128 8.83472 20.923 9.14487 20.923 9.52702C20.923 9.90918 20.6128 10.2193 20.2307 10.2193Z" fill="currentColor"/>
<path fill-rule="evenodd" clip-rule="evenodd" d="M15.7323 6.42246C15.3502 6.42246 15.04 6.11231 15.04 5.73015V2.69231C15.04 2.31015 15.3502 2 15.7323 2C16.1145 2 16.4247 2.31015 16.4247 2.69231V5.73015C16.4247 6.11231 16.1145 6.42246 15.7323 6.42246Z" fill="currentColor"/>
<path fill-rule="evenodd" clip-rule="evenodd" d="M8.2758 6.42246C7.89365 6.42246 7.5835 6.11231 7.5835 5.73015V2.69231C7.5835 2.31015 7.89365 2 8.2758 2C8.65796 2 8.96811 2.31015 8.96811 2.69231V5.73015C8.96811 6.11231 8.65796 6.42246 8.2758 6.42246Z" fill="currentColor"/>
<mask id="mask0_366_5108" style="mask-type:luminance" maskUnits="userSpaceOnUse" x="3" y="3" width="18" height="19">
<path fill-rule="evenodd" clip-rule="evenodd" d="M3 3.45752H21V21.846H3V3.45752Z" fill="white"/>
</mask>
<g mask="url(#mask0_366_5108)">
<path fill-rule="evenodd" clip-rule="evenodd" d="M8.09631 4.84213C5.70277 4.84213 4.38462 6.11874 4.38462 8.43659V16.7895C4.38462 19.1581 5.70277 20.4615 8.09631 20.4615H15.9037C18.2972 20.4615 19.6154 19.1821 19.6154 16.8597V8.43659C19.6191 7.29659 19.3126 6.41043 18.7043 5.8012C18.0785 5.17351 17.1138 4.84213 15.912 4.84213H8.09631ZM15.9037 21.8461H8.09631C4.95323 21.8461 3 19.9086 3 16.7895V8.4366C3 5.3646 4.95323 3.45752 8.09631 3.45752H15.912C17.4895 3.45752 18.7938 3.93013 19.6846 4.82275C20.5495 5.69137 21.0046 6.94029 21 8.43844V16.8597C21 19.9354 19.0468 21.8461 15.9037 21.8461Z" fill="currentColor"/>
</g>
</svg>
