<svg width="106" height="87" viewBox="0 0 106 87" fill="none" xmlns="http://www.w3.org/2000/svg">
<path d="M99.2411 27.1152C99.5305 27.5329 97.3116 31.1632 94.353 35.2112C94.353 35.2112 83.5799 49.7969 67.1469 60.5916C52.3862 70.2618 36.8858 74.4062 36.8858 74.4062C32.0299 75.6913 27.8493 76.3981 27.5599 75.9804C27.2705 75.5628 30.5185 73.5067 35.4066 72.3501C35.4066 72.3501 50.9069 68.6876 65.8928 58.921C82.6795 47.9657 93.0345 33.0909 93.0345 33.0909C95.8966 28.9786 98.9838 26.7297 99.2732 27.1474L99.2411 27.1152Z" fill="#361305"/>
<path d="M43.5426 87C67.5904 87 87.0851 67.5244 87.0851 43.5C87.0851 19.4756 67.5904 0 43.5426 0C19.4947 0 0 19.4756 0 43.5C0 67.5244 19.4947 87 43.5426 87Z" fill="url(#paint0_linear_1912_86172)"/>
<path opacity="0.6" d="M41.999 22.4568C42.3206 22.1355 42.8995 22.1355 42.9638 22.1355C44.6682 22.1998 45.5686 25.2197 45.9545 26.5369C46.4047 28.1111 47.2409 30.8741 45.8259 31.7736C45.44 32.0306 44.7968 32.1591 44.3144 31.9664C43.3175 31.5166 44.1858 29.8781 43.7034 27.4686C43.1246 24.7057 41.1951 23.2599 41.999 22.4568Z" fill="#0B0415"/>
<path opacity="0.6" d="M60.49 20.3043C60.8116 19.983 61.3904 19.983 61.4548 19.983C63.1592 20.0473 64.0596 23.0672 64.4455 24.3844C64.8957 25.9587 65.7318 28.7216 64.3169 29.6211C63.931 29.8782 63.2878 30.0067 62.8054 29.8139C61.8085 29.3641 62.6768 27.7256 62.1944 25.3161C61.6155 22.5532 59.686 21.1075 60.49 20.3043Z" fill="#0B0415"/>
<path d="M92.7772 20.5292C93.2595 20.1437 94.0635 20.1758 94.1921 20.1758C95.4785 20.208 97.408 22.5211 98.1155 25.1876C98.5335 26.6976 98.4371 27.8221 98.3085 29.1071C98.1798 30.5207 97.8904 30.9063 97.601 31.1633C97.0543 31.613 96.186 31.6452 95.4463 31.3882C94.0635 30.8741 95.4463 29.0108 94.8353 26.2478C94.1922 23.0994 91.5873 21.4609 92.745 20.5292H92.7772Z" fill="#361305"/>
<path d="M101.01 19.9187C101.621 20.0151 102.167 20.5934 102.232 20.6898C103.1 21.6536 102.746 24.6414 101.331 26.9867C100.527 28.336 99.659 29.0428 98.6299 29.846C97.5044 30.7134 97.0541 30.8098 96.6682 30.7455C95.9608 30.6492 95.3498 30.0387 95.0282 29.332C94.4493 27.9826 96.7326 27.6613 98.3084 25.3482C100.141 22.7138 99.5304 19.6617 101.01 19.8866V19.9187Z" fill="#361305"/>
<path d="M105.448 25.4767C105.898 25.9265 105.962 26.7297 105.994 26.826C106.123 28.1111 104.065 30.2958 101.524 31.3559C100.077 31.9664 98.9516 31.9985 97.6652 32.0306C96.2503 32.0627 95.8001 31.87 95.5428 31.5808C95.0283 31.0989 94.8996 30.2315 95.0604 29.4926C95.382 28.0469 97.408 29.1713 100.077 28.2396C103.1 27.2116 104.419 24.3844 105.48 25.4446L105.448 25.4767Z" fill="#361305"/>
<path opacity="0.6" d="M71.2633 42.3756C72.2923 43.8856 71.8421 45.7489 71.6491 46.5521C70.813 50.1503 66.6003 53.5879 62.1946 55.3228C61.68 55.5155 51.5823 59.3387 43.7999 53.8771C42.996 53.2988 38.0114 49.8291 38.6867 46.1344C38.9118 44.9457 39.7158 43.7249 40.8735 43.0181C45.3114 40.3195 50.3281 47.9657 57.3386 46.5521C62.8377 45.4598 65.6355 39.6127 69.2051 40.8977C70.5558 41.3796 71.2633 42.4077 71.2633 42.4077V42.3756Z" fill="#0B0415"/>
<defs>
<linearGradient id="paint0_linear_1912_86172" x1="12.7348" y1="12.7544" x2="74.258" y2="74.3057" gradientUnits="userSpaceOnUse">
<stop offset="0.1" stop-color="#F5A749"/>
<stop offset="0.37" stop-color="#F29842"/>
<stop offset="0.89" stop-color="#ED7130"/>
<stop offset="1" stop-color="#EC682C"/>
</linearGradient>
</defs>
</svg>
