<svg width="35" height="36" viewBox="0 0 35 36" fill="none" xmlns="http://www.w3.org/2000/svg">
<path d="M21.0252 27.8169L12.1352 19.0587C11.8267 18.7479 11.6667 18.4026 11.6667 17.9998C11.6667 17.597 11.8267 17.2287 12.1467 16.9295L21.0366 8.1828C21.288 7.92961 21.608 7.7915 21.9736 7.7915C22.7392 7.7915 23.3334 8.38996 23.3334 9.14955C23.3334 9.51783 23.1849 9.8746 22.9221 10.1393L14.9234 17.9883L22.9221 25.8604C23.1849 26.1251 23.3334 26.4703 23.3334 26.8501C23.3334 27.6097 22.7392 28.2082 21.9736 28.2082C21.608 28.2082 21.288 28.0701 21.0252 27.8169Z" fill="#141514"/>
</svg>
