<svg width="22" height="22" viewBox="0 0 20 20" fill="currentColor" xmlns="http://www.w3.org/2000/svg">
<g clip-path="url(#clip0_2277_515)">
<path d="M10.0003 18.3333C5.39783 18.3333 1.66699 14.6025 1.66699 9.99996C1.66699 5.39746 5.39783 1.66663 10.0003 1.66663C14.6028 1.66663 18.3337 5.39746 18.3337 9.99996C18.3337 14.6025 14.6028 18.3333 10.0003 18.3333ZM10.0003 16.6666C11.7684 16.6666 13.4641 15.9642 14.7144 14.714C15.9646 13.4638 16.667 11.7681 16.667 9.99996C16.667 8.23185 15.9646 6.53616 14.7144 5.28591C13.4641 4.03567 11.7684 3.33329 10.0003 3.33329C8.23222 3.33329 6.53652 4.03567 5.28628 5.28591C4.03604 6.53616 3.33366 8.23185 3.33366 9.99996C3.33366 11.7681 4.03604 13.4638 5.28628 14.714C6.53652 15.9642 8.23222 16.6666 10.0003 16.6666ZM5.83366 14.1666C5.83366 13.0616 6.27265 12.0017 7.05405 11.2203C7.83545 10.4389 8.89526 9.99996 10.0003 9.99996C11.1054 9.99996 12.1652 10.4389 12.9466 11.2203C13.728 12.0017 14.167 13.0616 14.167 14.1666H12.5003C12.5003 13.5036 12.2369 12.8677 11.7681 12.3989C11.2993 11.93 10.6634 11.6666 10.0003 11.6666C9.33728 11.6666 8.7014 11.93 8.23256 12.3989C7.76372 12.8677 7.50033 13.5036 7.50033 14.1666H5.83366ZM6.66699 9.16663C6.33547 9.16663 6.01753 9.03493 5.78311 8.80051C5.54869 8.56609 5.41699 8.24815 5.41699 7.91663C5.41699 7.58511 5.54869 7.26716 5.78311 7.03274C6.01753 6.79832 6.33547 6.66663 6.66699 6.66663C6.99851 6.66663 7.31646 6.79832 7.55088 7.03274C7.7853 7.26716 7.91699 7.58511 7.91699 7.91663C7.91699 8.24815 7.7853 8.56609 7.55088 8.80051C7.31646 9.03493 6.99851 9.16663 6.66699 9.16663ZM13.3337 9.16663C13.0021 9.16663 12.6842 9.03493 12.4498 8.80051C12.2154 8.56609 12.0837 8.24815 12.0837 7.91663C12.0837 7.58511 12.2154 7.26716 12.4498 7.03274C12.6842 6.79832 13.0021 6.66663 13.3337 6.66663C13.6652 6.66663 13.9831 6.79832 14.2175 7.03274C14.452 7.26716 14.5837 7.58511 14.5837 7.91663C14.5837 8.24815 14.452 8.56609 14.2175 8.80051C13.9831 9.03493 13.6652 9.16663 13.3337 9.16663Z" fill="currentColor"/>
</g>
<defs>
<clipPath id="clip0_2277_515">
<rect width="20" height="20" fill="white"/>
</clipPath>
</defs>
</svg>
