<svg width="22" height="22" viewBox="0 0 22 22" fill="none" xmlns="http://www.w3.org/2000/svg">
<path d="M16.94 16.9921H19.25M4.29 11L2.75 11.0404M4.29 11C4.29 12.215 5.27497 13.2 6.49 13.2C7.70502 13.2 8.69 12.215 8.69 11C8.69 9.78497 7.70502 8.8 6.49 8.8C5.27497 8.8 4.29 9.78497 4.29 11ZM9.32156 11.0404H19.25M11.7342 5.08863L2.75 5.08863M19.25 5.08863H16.94M2.75 16.9921H11.7342M16.39 17.05C16.39 18.265 15.405 19.25 14.19 19.25C12.975 19.25 11.99 18.265 11.99 17.05C11.99 15.835 12.975 14.85 14.19 14.85C15.405 14.85 16.39 15.835 16.39 17.05ZM16.39 4.95C16.39 6.16503 15.405 7.15 14.19 7.15C12.975 7.15 11.99 6.16503 11.99 4.95C11.99 3.73497 12.975 2.75 14.19 2.75C15.405 2.75 16.39 3.73497 16.39 4.95Z" stroke="#6E726E" stroke-width="1.5" stroke-linecap="round"/>
</svg>
