<svg width="18" height="18" viewBox="0 0 18 18" fill="none" xmlns="http://www.w3.org/2000/svg">
<rect width="18" height="18" fill="white"/>
<path d="M3.53857 12.901L4.84274 11.5969C6.06149 10.3781 8.03749 10.3781 9.25624 11.5969L10.5604 12.901M10.5604 12.901L11.0887 12.3728C12.0619 11.3995 13.6607 11.4721 14.5418 12.5294L14.8515 12.901M10.5604 12.901L12.5109 14.8515M2.51466 11.2872C2.16178 9.78281 2.16178 8.21719 2.51466 6.71282C3.00328 4.62975 4.62976 3.00328 6.71282 2.51466C8.21719 2.16178 9.78281 2.16178 11.2872 2.51466C13.3702 3.00328 14.9967 4.62976 15.4853 6.71283C15.8382 8.21719 15.8382 9.78281 15.4853 11.2872C14.9967 13.3702 13.3702 14.9967 11.2872 15.4853C9.78281 15.8382 8.21719 15.8382 6.71283 15.4853C4.62976 14.9967 3.00328 13.3702 2.51466 11.2872Z" stroke="currentColor" stroke-linecap="round" stroke-linejoin="round"/>
<rect x="9.75" y="5.25" width="3" height="3" rx="1.5" stroke="currentColor"/>
</svg>
