<svg width="100%" height="100%" viewBox="0 0 20 20" fill="none" xmlns="http://www.w3.org/2000/svg">
<path d="M9.87892 10.9248C4.95515 11.829 1.58295 9.46575 1 4.82192C6.30558 4.52633 8.87714 5.8642 9.87892 10.9248ZM9.87892 10.9248V9.09589C10.5924 2.58152 12.7869 1.04148 19 1C17.8555 6.80794 16.0307 8.75479 10.2421 9.42466C9.64057 11.6667 9.50679 14.9632 9.73594 15.9574M9.87892 10.9248C9.73703 12.5795 9.56642 14.2304 9.73594 15.9574M9.73594 15.9574C9.74538 16.0535 9.75588 16.1499 9.76749 16.2466C7.78991 15.3836 5.39911 17.6438 3.7444 19H15.8117C15.4706 18.2101 14.722 18.4247 13.6323 17.7671C12.5426 17.1096 12.8751 16.4401 11.9776 16.0822C11.4125 15.9241 10.6457 16.3288 10.4439 16.3699C10.2421 16.411 10.2825 16.411 9.87892 16.2466C9.82165 16.2232 9.77384 16.1218 9.73594 15.9574Z" stroke="black" stroke-linejoin="round"/>
</svg>
