<svg width="100%" height="100%" viewBox="0 0 24 24" fill="none" xmlns="http://www.w3.org/2000/svg">
<path fill-rule="evenodd" clip-rule="evenodd" d="M18.6894 5.32118C18.491 5.12236 18.2217 5.01062 17.9408 5.01062C17.66 5.01062 17.3906 5.12236 17.1923 5.32118L12 10.5028L6.80774 5.31057C6.60936 5.11174 6.34003 5 6.05916 5C5.77829 5 5.50896 5.11174 5.31058 5.31057C4.89647 5.72467 4.89647 6.39362 5.31058 6.80772L10.5028 12L5.31058 17.1923C4.89647 17.6064 4.89647 18.2753 5.31058 18.6894C5.72469 19.1035 6.39363 19.1035 6.80774 18.6894L12 13.4971L17.1923 18.6894C17.6064 19.1035 18.2753 19.1035 18.6894 18.6894C19.1035 18.2753 19.1035 17.6064 18.6894 17.1923L13.4972 12L18.6894 6.80772C19.0929 6.40423 19.0929 5.72467 18.6894 5.32118Z" fill="#505050"/>
</svg>
