<svg width="18" height="18" viewBox="0 0 18 18" fill="none" xmlns="http://www.w3.org/2000/svg">
<path d="M2.51466 6.62473C3.00328 4.58278 4.62976 2.98841 6.71283 2.50943C8.21719 2.16352 9.78281 2.16352 11.2872 2.50943C13.3702 2.98841 14.9967 4.58278 15.4853 6.62473C15.8382 8.09941 15.8382 9.63412 15.4853 11.1088C14.9967 13.1507 13.3702 14.7451 11.2872 15.2241C9.78281 15.57 8.21719 15.57 6.71283 15.2241C4.62976 14.7451 3.00328 13.1507 2.51466 11.1088C2.16178 9.63412 2.16178 8.09941 2.51466 6.62473Z" fill="white"/>
<path d="M2.51466 11.1088L3.00093 10.9924L2.51466 11.1088ZM2.51466 6.62473L3.00093 6.74109L2.51466 6.62473ZM15.4853 6.62473L14.9991 6.7411L15.4853 6.62473ZM15.4853 11.1088L14.9991 10.9924L15.4853 11.1088ZM11.2872 15.2241L11.3992 15.7114L11.2872 15.2241ZM6.71283 15.2241L6.82487 14.7368L6.71283 15.2241ZM6.71283 2.50943L6.82487 2.99672L6.71283 2.50943ZM11.2872 2.50943L11.3992 2.02215L11.2872 2.50943ZM3.00093 10.9924C2.66636 9.59425 2.66636 8.13927 3.00093 6.74109L2.02839 6.50837C1.6572 8.05954 1.6572 9.67399 2.02839 11.2252L3.00093 10.9924ZM14.9991 6.7411C15.3336 8.13927 15.3336 9.59425 14.9991 10.9924L15.9716 11.2252C16.3428 9.67399 16.3428 8.05954 15.9716 6.50837L14.9991 6.7411ZM11.1751 14.7368C9.7445 15.0658 8.2555 15.0658 6.82487 14.7368L6.60078 15.7114C8.17888 16.0742 9.82112 16.0742 11.3992 15.7114L11.1751 14.7368ZM6.82487 2.99672C8.2555 2.66776 9.7445 2.66776 11.1751 2.99672L11.3992 2.02215C9.82112 1.65928 8.17888 1.65928 6.60078 2.02215L6.82487 2.99672ZM6.82487 14.7368C4.92261 14.2994 3.44436 12.8455 3.00093 10.9924L2.02839 11.2252C2.5622 13.456 4.33691 15.1908 6.60078 15.7114L6.82487 14.7368ZM11.3992 15.7114C13.6631 15.1908 15.4378 13.456 15.9716 11.2252L14.9991 10.9924C14.5556 12.8455 13.0774 14.2994 11.1751 14.7368L11.3992 15.7114ZM11.1751 2.99672C13.0774 3.43412 14.5556 4.88802 14.9991 6.7411L15.9716 6.50837C15.4378 4.27755 13.6631 2.5427 11.3992 2.02215L11.1751 2.99672ZM6.60078 2.02215C4.33691 2.5427 2.5622 4.27755 2.02839 6.50837L3.00093 6.74109C3.44436 4.88802 4.92261 3.43412 6.82487 2.99672L6.60078 2.02215ZM11.0604 15.75C11.0604 14.654 11.0615 13.8833 11.1415 13.3003C11.2193 12.7328 11.3633 12.4183 11.596 12.1903L10.8959 11.4761C10.443 11.9201 10.2443 12.4824 10.1507 13.1645C10.0593 13.8311 10.0604 14.6828 10.0604 15.75H11.0604ZM15.2416 10.6612C14.1521 10.6612 13.2857 10.6602 12.608 10.7495C11.917 10.8405 11.3475 11.0335 10.8959 11.4761L11.596 12.1903C11.83 11.9608 12.1549 11.8178 12.7387 11.7409C13.3358 11.6622 14.1244 11.6612 15.2416 11.6612V10.6612Z" fill="#6E726E"/>
<path d="M6.75 6.75H9M6.75 9H10.5" stroke="#6E726E" stroke-linecap="round"/>
</svg>
