<svg width="18" height="18" viewBox="0 0 18 18" fill="none" xmlns="http://www.w3.org/2000/svg">
<path d="M2.87495 7.01492C3.33643 5.00149 4.87255 3.42938 6.83989 2.9571C8.26068 2.61601 9.73932 2.61601 11.1601 2.95709C13.1275 3.42938 14.6636 5.00149 15.125 7.01493C15.4583 8.469 15.4583 9.98228 15.125 11.4364C14.6636 13.4498 13.1275 15.0219 11.1601 15.4942C9.73932 15.8353 8.26068 15.8353 6.83989 15.4942C4.87255 15.0219 3.33643 13.4498 2.87495 11.4364C2.54168 9.98228 2.54168 8.469 2.87495 7.01492Z" fill="white"/>
<path d="M6.05256 2.25V4.13531M11.9474 2.25V4.13531M2.87495 11.4364C2.54168 9.98228 2.54168 8.469 2.87495 7.01492C3.33643 5.00149 4.87255 3.42938 6.83989 2.9571C8.26068 2.61601 9.73932 2.61601 11.1601 2.95709C13.1275 3.42938 14.6636 5.00149 15.125 7.01493C15.4583 8.469 15.4583 9.98228 15.125 11.4364C14.6636 13.4498 13.1275 15.0219 11.1601 15.4942C9.73932 15.8353 8.26068 15.8353 6.83989 15.4942C4.87255 15.0219 3.33643 13.4498 2.87495 11.4364Z" stroke="#6E726E" stroke-linecap="round"/>
<path d="M10.35 8.09997L7.65001 11.25M10.35 11.25L7.65001 8.09999" stroke="#6E726E" stroke-linecap="round"/>
</svg>
