<svg width="18" height="18" viewBox="0 0 18 18" fill="none" xmlns="http://www.w3.org/2000/svg">
<path d="M7.34254 2.072C5.53501 2.65791 4.12391 4.12806 3.62502 5.96932L3.58467 6.11823C3.26131 7.31166 3.2019 8.56174 3.4106 9.78069L3.43086 9.89899C3.44891 10.0044 3.39472 10.1092 3.30117 10.1603C2.67507 10.5018 2.25 11.1682 2.25 11.9343C2.25 12.894 2.92279 13.7208 3.85883 13.9114L4.18967 13.9788C7.36426 14.6256 10.6357 14.6256 13.8103 13.9788L14.1412 13.9114C15.0772 13.7208 15.75 12.894 15.75 11.9343C15.75 11.1759 15.3335 10.5153 14.7177 10.1707C14.6134 10.1123 14.5528 9.99457 14.573 9.87631L14.5945 9.75083C14.7999 8.55101 14.7464 7.32085 14.4375 6.14361L14.3814 5.92951C13.905 4.11375 12.5458 2.6639 10.7704 2.07753C9.66144 1.7113 8.45345 1.71189 7.34254 2.072Z" fill="white"/>
<path d="M6.30819 14.3131C8.09713 14.5142 9.90287 14.5142 11.6918 14.3131C11.6791 14.4871 11.6518 14.6598 11.6101 14.8295L11.5364 15.1295C11.3052 16.0695 10.5709 16.801 9.63349 17.0253C9.21699 17.1249 8.78301 17.1249 8.36651 17.0253C7.42905 16.801 6.69477 16.0695 6.46364 15.1295L6.38987 14.8295C6.34815 14.6598 6.32085 14.4871 6.30819 14.3131Z" fill="white"/>
<path d="M3.62502 5.96932L4.10762 6.10008H4.10762L3.62502 5.96932ZM7.34254 2.072L7.18836 1.59636L7.34254 2.072ZM3.58467 6.11823L3.10207 5.98747H3.10207L3.58467 6.11823ZM3.4106 9.78069L3.90343 9.69631L3.4106 9.78069ZM3.43086 9.89899L2.93803 9.98337L2.93803 9.98337L3.43086 9.89899ZM3.85883 13.9114L3.95864 13.4215L3.85883 13.9114ZM4.18967 13.9788L4.28948 13.4889H4.28948L4.18967 13.9788ZM13.8103 13.9788L13.7105 13.4889L13.8103 13.9788ZM14.1412 13.9114L14.241 14.4014L14.1412 13.9114ZM14.573 9.87631L15.0659 9.96069L14.573 9.87631ZM14.5945 9.75083L14.1017 9.66645V9.66645L14.5945 9.75083ZM14.4375 6.14361L13.9539 6.2705V6.2705L14.4375 6.14361ZM14.3814 5.92951L14.865 5.80262V5.80262L14.3814 5.92951ZM10.7704 2.07753L10.9272 1.60275L10.7704 2.07753ZM14.7177 10.1707L14.4735 10.607L14.7177 10.1707ZM3.30117 10.1603L3.06173 9.72132L3.30117 10.1603ZM9.5 0.899994C9.5 0.623852 9.27614 0.399994 9 0.399994C8.72386 0.399994 8.5 0.623852 8.5 0.899994H9.5ZM8.5 1.80426C8.5 2.0804 8.72386 2.30426 9 2.30426C9.27614 2.30426 9.5 2.0804 9.5 1.80426H8.5ZM6.30819 14.3131L6.36405 13.8162L5.76583 13.7489L5.80951 14.3493L6.30819 14.3131ZM11.6918 14.3131L12.1905 14.3493L12.2342 13.7489L11.6359 13.8162L11.6918 14.3131ZM11.6101 14.8295L12.0957 14.9489L11.6101 14.8295ZM11.5364 15.1295L11.0508 15.0101L11.5364 15.1295ZM9.63349 17.0253L9.74982 17.5115H9.74982L9.63349 17.0253ZM8.36651 17.0253L8.25018 17.5115L8.36651 17.0253ZM6.46364 15.1295L5.9781 15.2489V15.2489L6.46364 15.1295ZM6.38987 14.8295L6.8754 14.7101V14.7101L6.38987 14.8295ZM4.10762 6.10008C4.56199 4.42311 5.84868 3.08185 7.49672 2.54763L7.18836 1.59636C5.22134 2.23398 3.68582 3.83301 3.14242 5.83856L4.10762 6.10008ZM4.06727 6.24899L4.10762 6.10008L3.14242 5.83856L3.10207 5.98747L4.06727 6.24899ZM3.90343 9.69631C3.70699 8.54895 3.76291 7.37228 4.06727 6.24899L3.10207 5.98747C2.75971 7.25103 2.69681 8.57453 2.91778 9.86507L3.90343 9.69631ZM3.92369 9.81461L3.90343 9.69631L2.91778 9.86507L2.93803 9.98337L3.92369 9.81461ZM2.75 11.9343C2.75 11.3576 3.06943 10.8562 3.54062 10.5992L3.06173 9.72132C2.2807 10.1474 1.75 10.9788 1.75 11.9343H2.75ZM3.95864 13.4215C3.25705 13.2786 2.75 12.6579 2.75 11.9343H1.75C1.75 13.13 2.58853 14.1629 3.75902 14.4014L3.95864 13.4215ZM4.28948 13.4889L3.95864 13.4215L3.75902 14.4014L4.08986 14.4688L4.28948 13.4889ZM13.7105 13.4889C10.6018 14.1222 7.3982 14.1222 4.28948 13.4889L4.08986 14.4688C7.33031 15.1289 10.6697 15.1289 13.9101 14.4688L13.7105 13.4889ZM14.0414 13.4215L13.7105 13.4889L13.9101 14.4688L14.241 14.4014L14.0414 13.4215ZM15.25 11.9343C15.25 12.6579 14.7429 13.2786 14.0414 13.4215L14.241 14.4014C15.4115 14.1629 16.25 13.13 16.25 11.9343H15.25ZM14.4735 10.607C14.937 10.8664 15.25 11.3634 15.25 11.9343H16.25C16.25 10.9885 15.7299 10.1641 14.9619 9.73436L14.4735 10.607ZM14.1017 9.66645L14.0802 9.79193L15.0659 9.96069L15.0873 9.83521L14.1017 9.66645ZM13.9539 6.2705C14.2447 7.37876 14.2951 8.53689 14.1017 9.66645L15.0873 9.83521C15.3048 8.56513 15.2481 7.26293 14.9212 6.01673L13.9539 6.2705ZM13.8977 6.05639L13.9539 6.2705L14.9212 6.01673L14.865 5.80262L13.8977 6.05639ZM10.6136 2.55231C12.2274 3.08531 13.4641 4.40368 13.8977 6.05639L14.865 5.80262C14.3458 3.82381 12.8642 2.2425 10.9272 1.60275L10.6136 2.55231ZM7.49672 2.54763C8.50764 2.21994 9.6067 2.21978 10.6136 2.55231L10.9272 1.60275C9.71619 1.20281 8.39925 1.20385 7.18836 1.59636L7.49672 2.54763ZM14.9619 9.73436C15.0304 9.77269 15.0836 9.85705 15.0659 9.96069L14.0802 9.79193C14.022 10.1321 14.1964 10.4519 14.4735 10.607L14.9619 9.73436ZM2.93803 9.98337C2.91802 9.8665 2.97819 9.7669 3.06173 9.72132L3.54062 10.5992C3.81124 10.4516 3.97979 10.1423 3.92369 9.81461L2.93803 9.98337ZM8.5 0.899994V1.80426H9.5V0.899994H8.5ZM6.25233 14.8099C8.07839 15.0152 9.92161 15.0152 11.7477 14.8099L11.6359 13.8162C9.88413 14.0131 8.11587 14.0131 6.36405 13.8162L6.25233 14.8099ZM12.0957 14.9489C12.1441 14.7519 12.1758 14.5513 12.1905 14.3493L11.1931 14.2768C11.1825 14.4228 11.1596 14.5678 11.1246 14.7101L12.0957 14.9489ZM12.0219 15.2489L12.0957 14.9489L11.1246 14.7101L11.0508 15.0101L12.0219 15.2489ZM9.74982 17.5115C10.8703 17.2435 11.7463 16.3696 12.0219 15.2489L11.0508 15.0101C10.8641 15.7693 10.2716 16.3585 9.51717 16.539L9.74982 17.5115ZM8.25018 17.5115C8.74316 17.6295 9.25684 17.6295 9.74982 17.5115L9.51717 16.539C9.17713 16.6203 8.82287 16.6203 8.48283 16.539L8.25018 17.5115ZM5.9781 15.2489C6.25369 16.3696 7.12971 17.2435 8.25018 17.5115L8.48283 16.539C7.7284 16.3585 7.13585 15.7693 6.94918 15.0101L5.9781 15.2489ZM5.90433 14.9489L5.9781 15.2489L6.94918 15.0101L6.8754 14.7101L5.90433 14.9489ZM5.80951 14.3493C5.82421 14.5513 5.8559 14.7519 5.90433 14.9489L6.8754 14.7101C6.8404 14.5678 6.8175 14.4228 6.80687 14.2768L5.80951 14.3493Z" fill="#6E726E"/>
</svg>
