<svg width="18" height="18" viewBox="0 0 18 18" fill="none" xmlns="http://www.w3.org/2000/svg">
<path d="M9 2.25C8.2325 2.25 7.46501 2.33822 6.71282 2.51466C4.62976 3.00328 3.00328 4.62975 2.51466 6.71282C2.16178 8.21719 2.16178 9.78281 2.51466 11.2872C3.00328 13.3702 4.62976 14.9967 6.71283 15.4853C8.21719 15.8382 9.78281 15.8382 11.2872 15.4853C13.3702 14.9967 14.9967 13.3702 15.4853 11.2872C15.6618 10.535 15.75 9.76748 15.75 8.99998" stroke="currentColor" stroke-linecap="round"/>
<path d="M15.75 4.875C15.75 5.91053 14.9105 6.75 13.875 6.75C12.8395 6.75 12 5.91053 12 4.875C12 3.83947 12.8395 3 13.875 3C14.9105 3 15.75 3.83947 15.75 4.875Z" fill="none" stroke="currentColor"/>
</svg>
