<svg width="18" height="18" viewBox="0 0 18 18" fill="none" xmlns="http://www.w3.org/2000/svg">
<path d="M2.64004 5.0548C3.00475 3.79449 4.06788 2.84126 5.38891 2.59008C7.77374 2.13664 10.2263 2.13664 12.6111 2.59008C13.9321 2.84126 14.9953 3.79449 15.36 5.0548L15.3962 5.17991C15.8679 6.8102 15.8679 8.53553 15.3962 10.1658L15.36 10.2909C14.9953 11.5512 13.9321 12.5045 12.6111 12.7556C10.2263 13.2091 7.77374 13.2091 5.38892 12.7556C4.06788 12.5045 3.00475 11.5512 2.64004 10.2909L2.60384 10.1658C2.13205 8.53553 2.13205 6.8102 2.60384 5.1799L2.64004 5.0548Z" fill="white"/>
<path d="M2.60384 10.1658L3.08413 10.0268L2.60384 10.1658ZM2.60384 5.1799L2.12354 5.04091H2.12354L2.60384 5.1799ZM15.3962 5.17991L15.8765 5.04092L15.8765 5.04092L15.3962 5.17991ZM15.3962 10.1658L14.9159 10.0268L14.9159 10.0268L15.3962 10.1658ZM12.6111 12.7556L12.5177 12.2644L12.6111 12.7556ZM5.38892 12.7556L5.48231 12.2644L5.38892 12.7556ZM5.38891 2.59008L5.29552 2.09888L5.38891 2.59008ZM12.6111 2.59008L12.7045 2.09888L12.6111 2.59008ZM2.64004 10.2909L2.15974 10.4299H2.15974L2.64004 10.2909ZM15.36 10.2909L15.8403 10.4299L15.8403 10.4299L15.36 10.2909ZM15.36 5.0548L14.8797 5.19379V5.19379L15.36 5.0548ZM2.64004 5.0548L3.12033 5.19379L2.64004 5.0548ZM9.5 13.4422C9.5 13.1661 9.27614 12.9422 9 12.9422C8.72386 12.9422 8.5 13.1661 8.5 13.4422H9.5ZM8.5 15.75C8.5 16.0261 8.72386 16.25 9 16.25C9.27614 16.25 9.5 16.0261 9.5 15.75H8.5ZM7.02289 15.25C6.74675 15.25 6.52289 15.4739 6.52289 15.75C6.52289 16.0261 6.74675 16.25 7.02289 16.25V15.25ZM10.9771 16.25C11.2532 16.25 11.4771 16.0261 11.4771 15.75C11.4771 15.4739 11.2532 15.25 10.9771 15.25V16.25ZM14.8797 5.19379L14.9159 5.3189L15.8765 5.04092L15.8403 4.91581L14.8797 5.19379ZM14.9159 10.0268L14.8797 10.1519L15.8403 10.4299L15.8765 10.3048L14.9159 10.0268ZM3.12033 10.1519L3.08413 10.0268L2.12354 10.3048L2.15974 10.4299L3.12033 10.1519ZM3.08413 5.31889L3.12033 5.19379L2.15974 4.91581L2.12354 5.04091L3.08413 5.31889ZM3.08413 10.0268C2.63862 8.48734 2.63862 6.85839 3.08413 5.31889L2.12354 5.04091C1.62549 6.76201 1.62549 8.58372 2.12354 10.3048L3.08413 10.0268ZM14.9159 5.31889C15.3614 6.85839 15.3614 8.48734 14.9159 10.0268L15.8765 10.3048C16.3745 8.58372 16.3745 6.76201 15.8765 5.04092L14.9159 5.31889ZM12.5177 12.2644C10.1946 12.7062 7.80542 12.7062 5.48231 12.2644L5.29552 13.2468C7.74205 13.712 10.2579 13.712 12.7045 13.2468L12.5177 12.2644ZM5.48231 3.08128C7.80542 2.63957 10.1946 2.63957 12.5177 3.08128L12.7045 2.09888C10.2579 1.63371 7.74205 1.63371 5.29552 2.09888L5.48231 3.08128ZM5.48231 12.2644C4.34043 12.0473 3.43106 11.2257 3.12033 10.1519L2.15974 10.4299C2.57844 11.8768 3.79532 12.9616 5.29552 13.2468L5.48231 12.2644ZM12.7045 13.2468C14.2047 12.9616 15.4216 11.8768 15.8403 10.4299L14.8797 10.1519C14.5689 11.2257 13.6596 12.0473 12.5177 12.2644L12.7045 13.2468ZM12.5177 3.08128C13.6596 3.29839 14.5689 4.12001 14.8797 5.19379L15.8403 4.91581C15.4216 3.46896 14.2047 2.38413 12.7045 2.09888L12.5177 3.08128ZM5.29552 2.09888C3.79532 2.38413 2.57844 3.46896 2.15974 4.91581L3.12033 5.19379C3.43106 4.12001 4.34043 3.29839 5.48231 3.08128L5.29552 2.09888ZM8.5 13.4422V15.75H9.5V13.4422H8.5ZM7.02289 16.25H10.9771V15.25H7.02289V16.25Z" fill="#6E726E"/>
<path d="M6 8.4375L7.34455 7.37866C7.72036 7.08272 7.90826 6.93475 8.11604 6.96113C8.32383 6.98752 8.46878 7.17777 8.75867 7.55826L9.24133 8.19174C9.53122 8.57223 9.67617 8.76248 9.88396 8.78887C10.0917 8.81525 10.2796 8.66728 10.6554 8.37134L12 7.3125" stroke="#6E726E" stroke-linecap="round"/>
</svg>
