<svg width="100%" height="100%" viewBox="0 0 312 78" fill="none" xmlns="http://www.w3.org/2000/svg">
<g clip-path="url(#clip0_1912_86158)">
<path d="M17.2196 24.1045C18.9655 25.0406 20.3288 26.3607 21.3332 28.041C22.3377 29.7212 22.84 31.5934 22.84 33.6817C22.84 35.7699 22.3377 37.6421 21.3332 39.2983C20.3288 40.9785 18.9416 42.2747 17.1957 43.2348C15.4499 44.1949 13.5366 44.651 11.4319 44.651C9.32731 44.651 7.41401 44.1709 5.66813 43.2108C3.92225 42.2507 2.53511 40.9305 1.50672 39.2743C0.478324 37.6181 0 35.7459 0 33.6817C0 31.5934 0.50224 29.7212 1.53064 28.041C2.55903 26.3607 3.94617 25.0646 5.66813 24.1285C7.41401 23.1684 9.32731 22.7123 11.4558 22.7123C13.5844 22.7123 15.4977 23.1924 17.2196 24.1285V24.1045ZM12.1494 59.2208H5.69205V47.7954H12.1494V59.2208ZM34.0566 62.1492H5.69205V56.7725H34.0806V62.1492H34.0566ZM8.84899 29.1211C8.05975 29.5291 7.46185 30.1052 7.00744 30.8973C6.55303 31.6894 6.33779 32.6015 6.33779 33.6817C6.33779 34.7378 6.55303 35.6499 7.00744 36.418C7.46185 37.1861 8.05975 37.7862 8.84899 38.1942C9.63822 38.6023 10.4992 38.8183 11.4558 38.8183C12.4125 38.8183 13.2735 38.6023 14.0627 38.1942C14.8519 37.7862 15.4259 37.1861 15.8803 36.418C16.3347 35.6499 16.55 34.7378 16.5739 33.6817C16.5739 32.6015 16.3347 31.6654 15.9043 30.8973C15.4738 30.1292 14.8519 29.5291 14.0866 29.1211C13.3213 28.713 12.4364 28.521 11.4798 28.545C10.5231 28.545 9.66214 28.737 8.8729 29.1211H8.84899ZM32.7412 51.0838H26.236V20.048H32.7412V51.0598V51.0838ZM38.0746 37.6181H30.8997V32.1215H38.0746V37.6181Z" fill="url(#paint0_linear_1912_86158)"/>
<path d="M48.526 39.9465H42.0208V22.1123H48.526V39.9465ZM55.1029 38.3623C57.7815 38.1702 60.4601 37.8102 63.1387 37.3061L63.8084 42.7068C61.0819 43.2349 58.3077 43.5709 55.5095 43.7869C52.7113 43.979 49.3391 44.075 45.4408 44.075H42.0208V38.6263H45.4408C49.2195 38.6263 52.4243 38.5543 55.1029 38.3623ZM67.9937 47.0753C70.1462 47.7474 71.7964 48.7075 72.9444 49.9797C74.0924 51.2518 74.6663 52.74 74.6663 54.4922C74.6663 56.2445 74.0924 57.7566 72.9444 59.0048C71.7964 60.253 70.1462 61.2131 67.9937 61.8852C65.8413 62.5572 63.2822 62.8693 60.3405 62.8693C57.3989 62.8693 54.8637 62.5332 52.7352 61.8852C50.5827 61.2131 48.9564 60.253 47.8085 59.0048C46.6605 57.7566 46.0865 56.2445 46.0865 54.4922C46.0865 52.74 46.6605 51.2278 47.8085 49.9797C48.9564 48.7315 50.6067 47.7474 52.7591 47.0753C54.9116 46.4033 57.4467 46.0912 60.3645 46.0912C63.2822 46.0912 65.8652 46.4273 68.0176 47.0753H67.9937ZM55.9878 51.6359C54.8398 51.8519 53.9788 52.212 53.3809 52.692C52.8069 53.1721 52.52 53.7722 52.52 54.4922C52.52 55.2123 52.8069 55.7884 53.4049 56.2685C54.0028 56.7485 54.8637 57.0846 56.0117 57.3246C57.1597 57.5646 58.5947 57.6846 60.3405 57.6846C62.0864 57.6846 63.5453 57.5646 64.7172 57.3246C65.8891 57.0846 66.774 56.7485 67.3719 56.2685C67.9698 55.7884 68.2568 55.2123 68.2568 54.4922C68.2568 53.7722 67.9698 53.1721 67.3719 52.692C66.774 52.212 65.8891 51.8519 64.7411 51.6359C63.5931 51.4199 62.1103 51.2999 60.3645 51.3239C58.6186 51.3239 57.1597 51.4199 56.0117 51.6359H55.9878ZM69.6439 28.6171H58.5947V23.5044H69.6439V28.6171ZM69.6439 35.914H58.5947V30.8493H69.6439V35.914ZM74.5707 45.5391H68.1133V20H74.5707V45.5631V45.5391Z" fill="url(#paint1_linear_1912_86158)"/>
<path d="M84.735 68.2459H79.4973L81.6259 54.7803H88.729L84.735 68.2459Z" fill="url(#paint2_linear_1912_86158)"/>
<path d="M139.144 50.1237H101.452V44.699H139.144V50.1237ZM135.963 27.1529H104.825V21.8242H135.963V27.1529ZM135.557 41.5066H105.112V36.274H135.557V41.5066ZM116.328 39.1063H109.847V26.0967H116.328V39.1063ZM123.455 62.7493H117.046V47.1233H123.455V62.7493ZM130.821 39.1063H124.412V26.0967H130.821V39.1063Z" fill="url(#paint3_linear_1912_86158)"/>
<path d="M178.965 58.1166H141.297V52.644H178.965V58.1166ZM174.78 37.4261H151.987V44.2189H145.53V32.1215H168.394V28.137H145.482V22.7843H174.803V37.4261H174.78ZM175.712 46.8833H145.506V41.6266H175.712V46.8833Z" fill="url(#paint4_linear_1912_86158)"/>
<path d="M218.737 46.6913H181.045V41.4347H218.737V46.6913ZM214.265 32.5776H192.095V36.9461H185.685V27.801H207.808V25.8808H185.637V20.7441H214.289V32.6016L214.265 32.5776ZM214.982 39.5625H185.661V34.4738H214.982V39.5625ZM214.48 62.3653H185.781V48.9476H214.48V62.3653ZM192.119 57.0126H208.071V54.2523H192.119V57.0126Z" fill="url(#paint5_linear_1912_86158)"/>
<path d="M308.107 31.16C308.327 31.49 307.757 32.78 306.827 34.03C306.827 34.03 295.877 48.86 283.077 57.26C271.577 64.81 255.347 69.14 255.347 69.14C253.837 69.54 252.427 69.6 252.207 69.28C251.987 68.96 252.637 67.8 254.157 67.44C254.157 67.44 270.407 63.59 282.077 55.97C295.177 47.42 305.677 32.29 305.677 32.29C306.567 31.01 307.877 30.82 308.107 31.15V31.16Z" fill="#321509"/>
<path d="M264.677 77.88C283.422 77.88 298.617 62.6845 298.617 43.94C298.617 25.1955 283.422 10 264.677 10C245.933 10 230.737 25.1955 230.737 43.94C230.737 62.6845 245.933 77.88 264.677 77.88Z" fill="url(#paint6_linear_1912_86158)"/>
<path opacity="0.6" d="M267.027 27.53C267.287 27.27 267.737 27.28 267.787 27.28C269.107 27.33 269.807 29.69 270.117 30.71C270.477 31.93 271.127 34.1 270.007 34.81C269.697 35.01 269.197 35.12 268.837 34.96C268.057 34.61 268.747 33.33 268.347 31.45C267.897 29.3 266.397 28.16 267.027 27.54V27.53Z" fill="#090414"/>
<path opacity="0.6" d="M281.417 25.83C281.677 25.57 282.127 25.58 282.177 25.58C283.497 25.63 284.197 27.99 284.507 29.01C284.867 30.23 285.517 32.4 284.397 33.11C284.087 33.31 283.587 33.42 283.227 33.26C282.447 32.91 283.137 31.63 282.737 29.75C282.287 27.6 280.787 26.46 281.417 25.84V25.83Z" fill="#090414"/>
<path d="M303.067 26.01C303.447 25.71 304.087 25.72 304.167 25.73C305.177 25.76 306.667 27.57 307.237 29.64C307.567 30.82 307.477 31.69 307.377 32.7C307.267 33.8 307.057 34.11 306.827 34.3C306.397 34.64 305.717 34.67 305.157 34.47C304.067 34.07 305.137 32.62 304.697 30.47C304.197 28.02 302.157 26.72 303.077 26.01H303.067Z" fill="#321509"/>
<path d="M309.497 25.53C309.977 25.6 310.407 26.07 310.457 26.13C311.127 26.88 310.857 29.2 309.757 31.05C309.127 32.1 308.437 32.64 307.647 33.27C306.777 33.95 306.407 34.02 306.107 33.98C305.567 33.91 305.067 33.43 304.837 32.89C304.377 31.83 306.157 31.59 307.407 29.79C308.827 27.74 308.357 25.36 309.507 25.54L309.497 25.53Z" fill="#321509"/>
<path d="M312.937 29.8899C313.277 30.2299 313.347 30.8599 313.357 30.9399C313.447 31.9399 311.857 33.6499 309.877 34.4799C308.747 34.9499 307.877 34.9799 306.857 35.0099C305.747 35.0399 305.417 34.8799 305.197 34.6699C304.807 34.2899 304.687 33.6099 304.817 33.0299C305.077 31.8999 306.657 32.7699 308.727 32.0599C311.087 31.2499 312.117 29.0599 312.937 29.8799V29.8899Z" fill="#321509"/>
<path opacity="0.6" d="M288.267 42.49C288.937 43.47 288.647 44.7 288.527 45.22C287.967 47.59 285.217 49.83 282.327 50.98C281.997 51.11 275.377 53.62 270.267 50.03C269.727 49.65 266.477 47.37 266.917 44.94C267.057 44.16 267.587 43.36 268.347 42.89C271.257 41.11 274.547 46.13 279.147 45.21C282.747 44.49 284.597 40.66 286.927 41.49C287.807 41.8 288.267 42.49 288.267 42.49Z" fill="#090414"/>
<path d="M242.778 5.49069C242.856 5.19824 243.179 5.03665 243.215 5.01869C244.187 4.58344 245.642 6.23732 246.273 6.9606C247.021 7.82807 248.36 9.33775 247.854 10.3003C247.72 10.5701 247.401 10.8308 247.071 10.8438C246.373 10.8383 246.34 9.56226 245.311 8.17679C244.116 6.59529 242.583 6.22183 242.778 5.49069Z" fill="#401B09"/>
<path d="M267.896 0.256667C268.18 0.152747 268.498 0.324535 268.533 0.343622C269.448 0.889307 268.929 3.03049 268.699 3.96237C268.418 5.07283 267.95 7.03544 266.872 7.17372C266.574 7.21868 266.178 7.10755 265.977 6.84478C265.581 6.26983 266.607 5.51078 267.151 3.87245C267.76 1.98619 267.185 0.516469 267.896 0.256667Z" fill="#401B09"/>
<path d="M254.696 0.304567C254.89 0.0725909 255.251 0.062798 255.291 0.0617099C256.356 0.0781819 256.975 2.19238 257.241 3.11465C257.552 4.21706 258.127 6.15111 257.261 6.80935C257.025 6.99711 256.627 7.0986 256.322 6.97084C255.692 6.67056 256.202 5.50054 255.855 3.80969C255.441 1.87127 254.21 0.884507 254.696 0.304567Z" fill="#401B09"/>
</g>
<defs>
<linearGradient id="paint0_linear_1912_86158" x1="16.9566" y1="21.5122" x2="24.4469" y2="63.8441" gradientUnits="userSpaceOnUse">
<stop stop-color="#95CDA2"/>
<stop offset="0.56" stop-color="#72C2A1"/>
<stop offset="1" stop-color="#54BAA1"/>
</linearGradient>
<linearGradient id="paint1_linear_1912_86158" x1="56.1313" y1="19.64" x2="63.7662" y2="62.8118" gradientUnits="userSpaceOnUse">
<stop stop-color="#95CDA2"/>
<stop offset="0.56" stop-color="#72C2A1"/>
<stop offset="1" stop-color="#54BAA1"/>
</linearGradient>
<linearGradient id="paint2_linear_1912_86158" x1="82.8934" y1="54.5402" x2="85.3019" y2="68.1469" gradientUnits="userSpaceOnUse">
<stop stop-color="#95CDA2"/>
<stop offset="0.56" stop-color="#72C2A1"/>
<stop offset="1" stop-color="#54BAA1"/>
</linearGradient>
<linearGradient id="paint3_linear_1912_86158" x1="115.874" y1="19.88" x2="123.461" y2="62.7399" gradientUnits="userSpaceOnUse">
<stop stop-color="#95CDA2"/>
<stop offset="0.56" stop-color="#72C2A1"/>
<stop offset="1" stop-color="#54BAA1"/>
</linearGradient>
<linearGradient id="paint4_linear_1912_86158" x1="154.642" y1="21.1521" x2="161.723" y2="61.1563" gradientUnits="userSpaceOnUse">
<stop stop-color="#95CDA2"/>
<stop offset="0.56" stop-color="#72C2A1"/>
<stop offset="1" stop-color="#54BAA1"/>
</linearGradient>
<linearGradient id="paint5_linear_1912_86158" x1="195.467" y1="18.9919" x2="203.487" y2="64.3236" gradientUnits="userSpaceOnUse">
<stop stop-color="#95CDA2"/>
<stop offset="0.56" stop-color="#72C2A1"/>
<stop offset="1" stop-color="#54BAA1"/>
</linearGradient>
<linearGradient id="paint6_linear_1912_86158" x1="240.664" y1="19.9514" x2="288.666" y2="67.9286" gradientUnits="userSpaceOnUse">
<stop offset="0.1" stop-color="#F5A749"/>
<stop offset="0.37" stop-color="#F29842"/>
<stop offset="0.89" stop-color="#ED7130"/>
<stop offset="1" stop-color="#EC682C"/>
</linearGradient>
<clipPath id="clip0_1912_86158">
<rect width="312" height="78" fill="white"/>
</clipPath>
</defs>
</svg>
