<svg width="130" height="145" viewBox="0 0 130 145" fill="none" xmlns="http://www.w3.org/2000/svg">
<path d="M125.954 24.3151C126.123 24.5695 125.684 25.5642 124.968 26.528C124.968 26.528 116.535 37.9624 106.676 44.4391C97.8192 50.2604 85.3192 53.599 85.3192 53.599C84.1562 53.9074 83.0702 53.9537 82.9008 53.7069C82.7313 53.4602 83.232 52.5658 84.4026 52.2882C84.4026 52.2882 96.9181 49.3197 105.906 43.4445C115.995 36.8521 124.082 25.1864 124.082 25.1864C124.768 24.1994 125.777 24.0529 125.954 24.3074V24.3151Z" fill="#321509"/>
<path d="M92.5049 60.3378C106.942 60.3378 118.645 48.6216 118.645 34.1689C118.645 19.7162 106.942 8 92.5049 8C78.0682 8 66.365 19.7162 66.365 34.1689C66.365 48.6216 78.0682 60.3378 92.5049 60.3378Z" fill="url(#paint0_linear_2511_993)"/>
<path opacity="0.6" d="M94.3148 21.5162C94.515 21.3158 94.8616 21.3235 94.9001 21.3235C95.9167 21.362 96.4559 23.1817 96.6946 23.9681C96.9719 24.9088 97.4725 26.5819 96.6099 27.1294C96.3711 27.2836 95.9861 27.3684 95.7088 27.245C95.1081 26.9751 95.6395 25.9882 95.3314 24.5387C94.9848 22.881 93.8296 22.002 94.3148 21.5239V21.5162Z" fill="#090414"/>
<path opacity="0.6" d="M105.398 20.2055C105.598 20.005 105.945 20.0127 105.983 20.0127C107 20.0513 107.539 21.8709 107.778 22.6574C108.055 23.598 108.556 25.2712 107.693 25.8186C107.454 25.9728 107.069 26.0576 106.792 25.9343C106.191 25.6644 106.722 24.6775 106.414 23.2279C106.068 21.5702 104.913 20.6912 105.398 20.2132V20.2055Z" fill="#090414"/>
<path d="M122.072 20.3443C122.365 20.113 122.858 20.1207 122.919 20.1284C123.697 20.1515 124.845 21.5471 125.284 23.1431C125.538 24.0529 125.468 24.7237 125.391 25.5025C125.307 26.3506 125.145 26.5897 124.968 26.7361C124.637 26.9983 124.113 27.0214 123.682 26.8672C122.842 26.5588 123.666 25.4408 123.327 23.7831C122.942 21.894 121.371 20.8917 122.08 20.3443H122.072Z" fill="#321509"/>
<path d="M127.024 19.9742C127.394 20.0282 127.725 20.3905 127.764 20.4368C128.28 21.0151 128.072 22.8039 127.225 24.2303C126.739 25.0399 126.208 25.4562 125.6 25.942C124.929 26.4663 124.644 26.5203 124.413 26.4894C123.998 26.4355 123.612 26.0654 123.435 25.649C123.081 24.8317 124.452 24.6467 125.415 23.2588C126.508 21.6782 126.146 19.8431 127.032 19.9819L127.024 19.9742Z" fill="#321509"/>
<path d="M129.674 23.3359C129.936 23.598 129.99 24.0838 129.997 24.1455C130.067 24.9165 128.842 26.235 127.317 26.8749C126.447 27.2373 125.777 27.2605 124.991 27.2836C124.136 27.3067 123.882 27.1834 123.713 27.0214C123.412 26.7284 123.32 26.2041 123.42 25.7569C123.62 24.8857 124.837 25.5565 126.431 25.009C128.249 24.3845 129.042 22.6959 129.674 23.3282V23.3359Z" fill="#321509"/>
<path opacity="0.6" d="M110.674 33.0509C111.19 33.8065 110.966 34.7549 110.874 35.1558C110.442 36.9832 108.324 38.7103 106.099 39.597C105.844 39.6972 100.746 41.6325 96.8103 38.8645C96.3944 38.5715 93.8913 36.8135 94.2302 34.9399C94.338 34.3385 94.7462 33.7217 95.3315 33.3593C97.5728 31.9869 100.107 35.8575 103.649 35.1481C106.422 34.593 107.847 31.6399 109.641 32.2799C110.319 32.5189 110.674 33.0509 110.674 33.0509Z" fill="#090414"/>
<path d="M75.6386 4.52316C75.6988 4.29767 75.9477 4.17307 75.9753 4.15923C76.7236 3.82364 77.8446 5.09883 78.3306 5.65651C78.9067 6.32536 79.9375 7.48938 79.5478 8.2315C79.4444 8.43959 79.1991 8.64053 78.9449 8.65059C78.407 8.64637 78.3821 7.66248 77.5892 6.59423C76.669 5.37484 75.4882 5.08689 75.6386 4.52316Z" fill="#401B09"/>
<path d="M94.9838 0.487572C95.2027 0.407446 95.4475 0.539901 95.4747 0.554618C96.1788 0.975359 95.7794 2.62628 95.6022 3.3448C95.3859 4.201 95.0257 5.71424 94.195 5.82086C93.9654 5.85553 93.6603 5.76984 93.5061 5.56724C93.2008 5.12393 93.9912 4.53868 94.4097 3.27547C94.8787 1.8211 94.4363 0.687888 94.9838 0.487572Z" fill="#401B09"/>
<path d="M84.8172 0.524442C84.967 0.345581 85.2452 0.33803 85.2761 0.337191C86.096 0.349892 86.5731 1.98001 86.7779 2.69111C87.0174 3.54111 87.4598 5.03233 86.7932 5.53986C86.6116 5.68463 86.3044 5.76288 86.0698 5.66437C85.5842 5.43284 85.9773 4.53072 85.71 3.22701C85.3912 1.73243 84.4428 0.971596 84.8172 0.524442Z" fill="#401B09"/>
<path d="M117.921 55.303C105.013 34.5159 92.1968 26.7207 77.6789 19.9819C72.1721 17.5146 65.8335 14.654 56.9071 13.2893C39.6628 9.68086 14.0697 15.0473 3.74933 38.2246C4.92771 38.1629 6.26012 38.0241 7.76197 37.7234C13.6153 36.536 13.392 34.5699 17.859 34.2152C22.6264 33.8374 22.7189 36.0965 30.0587 36.8059C34.8338 37.2685 37.0904 36.536 38.677 38.3325C39.9632 39.7898 40.225 42.2571 39.3393 43.9688C38.8541 44.9094 37.4678 46.7059 29.9585 47.2534C22.7266 47.77 21.5174 46.2819 14.2469 46.1508C7.0226 46.0197 3.89567 47.4153 1.0537 46.0274C-2.65086 61.186 4.44249 68.6033 6.49887 86.2986C8.14706 100.509 -2.3659 108.959 1.18463 123C2.10115 126.616 4.08051 134.033 10.6347 138.991C16.8116 143.664 24.5904 144.296 29.7506 144.72C33.64 145.036 36.6514 144.836 38.7078 144.681C46.7331 144.08 52.8868 141.929 68.0825 139.623C89.3779 136.4 101.724 136.462 113.854 126.932C126.816 116.677 130.205 95.898 129.912 92.5517C130.806 76.9074 123.982 65.4961 117.936 55.2876L117.921 55.303Z" fill="url(#paint1_linear_2511_993)"/>
<path d="M14.2392 46.1508C21.502 46.2819 22.7189 47.77 29.9509 47.2534C37.4601 46.7137 38.8542 44.9094 39.3317 43.9688C40.2174 42.2494 39.9478 39.7821 38.6693 38.3325C37.0827 36.5437 34.8261 37.2762 30.051 36.8059C22.7112 36.0888 22.6265 33.8297 17.8514 34.2152C13.392 34.5699 13.6077 36.536 7.7543 37.7234C6.26015 38.0241 4.92774 38.1629 3.74166 38.2246C2.76353 40.3758 1.85472 42.8045 1.16156 45.5186C1.11535 45.6959 1.08454 45.8578 1.03833 46.0352C3.88029 47.423 7.00722 46.0352 14.2315 46.1585L14.2392 46.1508Z" fill="url(#paint2_linear_2511_993)"/>
<path opacity="0.2" d="M14.2392 46.1508C21.502 46.2819 22.7189 47.77 29.9509 47.2534C37.4601 46.7137 38.8542 44.9094 39.3317 43.9688C40.2174 42.2494 39.9478 39.7821 38.6693 38.3325C37.0827 36.5437 34.8261 37.2762 30.051 36.8059C22.7112 36.0888 22.6265 33.8297 17.8514 34.2152C13.392 34.5699 13.6077 36.536 7.7543 37.7234C6.26015 38.0241 4.92774 38.1629 3.74166 38.2246C2.76353 40.3758 1.85472 42.8045 1.16156 45.5186C1.11535 45.6959 1.08454 45.8578 1.03833 46.0352C3.88029 47.423 7.00722 46.0352 14.2315 46.1585L14.2392 46.1508Z" fill="#F2F2F2"/>
<path opacity="0.2" d="M40.2867 27.3453C44.0991 25.7184 44.2609 24.878 46.1478 24.9936C48.2581 25.1247 50.276 26.3044 51.5622 27.6768C52.1552 28.3091 52.9177 29.1264 52.9177 30.0516C52.9177 31.6091 50.792 32.5421 49.0437 32.65C47.0258 32.7734 46.6792 31.7248 44.5458 31.6091C41.4651 31.4395 40.8798 33.5598 38.523 32.9199C36.8979 32.4804 35.2266 30.946 35.2497 29.8589C35.2652 28.8334 36.7824 28.8334 40.279 27.3453H40.2867Z" fill="#F7F8F8"/>
<path d="M41.7732 56.5058C42.8437 57.061 43.6832 57.832 44.2994 58.8266C44.9155 59.8213 45.2236 60.9315 45.2236 62.1652C45.2236 63.3989 44.9155 64.5014 44.2994 65.4884C43.6832 66.4753 42.836 67.254 41.7655 67.8169C40.6949 68.3797 39.5165 68.6573 38.2303 68.6573C36.9441 68.6573 35.7658 68.372 34.6952 67.8092C33.6247 67.2463 32.7698 66.4676 32.1459 65.4807C31.5221 64.4937 31.2063 63.3834 31.214 62.1652C31.214 60.9315 31.5144 59.8135 32.1459 58.8266C32.7775 57.8397 33.6247 57.061 34.6875 56.5058C35.7581 55.943 36.9364 55.6654 38.2303 55.6654C39.5242 55.6654 40.7026 55.943 41.7732 56.4981V56.5058ZM38.6693 77.2775H34.7029V70.5155H38.6693V77.2775ZM52.1013 79.0046H34.7029V75.8279H52.1013V79.0046ZM36.6361 59.4743C36.1586 59.7133 35.7812 60.0603 35.5039 60.5229C35.2266 60.9855 35.0957 61.533 35.1034 62.1729C35.1034 62.7975 35.2343 63.3372 35.5039 63.7921C35.7812 64.247 36.1586 64.594 36.6361 64.8407C37.1136 65.0874 37.645 65.2031 38.2303 65.2031C38.8157 65.2031 39.3548 65.0797 39.8246 64.8407C40.2944 64.594 40.6718 64.247 40.9414 63.7921C41.2109 63.3372 41.3573 62.7975 41.3573 62.1729C41.3573 61.533 41.2186 60.9855 40.9491 60.5229C40.6795 60.0603 40.3098 59.7133 39.8323 59.4743C39.3548 59.2353 38.8234 59.1196 38.2303 59.1273C37.645 59.1273 37.1136 59.2353 36.6361 59.4743ZM51.2849 72.4585H47.3031V54.1156H51.2849V72.4585ZM54.5582 64.486H50.1681V61.2323H54.5582V64.486Z" fill="white"/>
<path d="M60.9661 65.8893H56.9689V55.3493H60.9661V65.8893ZM65.0019 64.9563C66.6423 64.8484 68.2828 64.6402 69.9233 64.3318L70.3315 67.5316C68.6525 67.84 66.9581 68.0482 65.2329 68.1638C63.5077 68.2795 61.459 68.3412 59.0638 68.3412H56.9612V65.1106H59.0638C61.3743 65.1106 63.3537 65.0643 64.9942 64.9563H65.0019ZM72.9039 70.1146C74.2286 70.5078 75.2376 71.0784 75.9461 71.8263C76.6547 72.5742 77.0013 73.4609 77.0013 74.5018C77.0013 75.5427 76.647 76.4293 75.9461 77.1772C75.2453 77.9251 74.2286 78.488 72.9116 78.8812C71.5946 79.2745 70.0311 79.4672 68.2135 79.4672C66.3959 79.4672 64.8555 79.2745 63.5462 78.8812C62.2369 78.488 61.228 77.9174 60.5194 77.1772C59.8108 76.4293 59.4643 75.5427 59.4643 74.5095C59.4643 73.4763 59.8185 72.5819 60.5194 71.834C61.228 71.0861 62.2369 70.5155 63.5462 70.1223C64.8632 69.7291 66.419 69.5363 68.2058 69.5363C69.9926 69.5363 71.5715 69.7291 72.8962 70.1223L72.9039 70.1146ZM65.541 72.8055C64.8324 72.9366 64.301 73.1447 63.9467 73.43C63.5924 73.7153 63.4153 74.07 63.4153 74.5018C63.4153 74.9335 63.5924 75.2728 63.9544 75.5581C64.3164 75.8356 64.8478 76.0438 65.5487 76.1826C66.2496 76.3214 67.1353 76.3908 68.2058 76.3908C69.2764 76.3908 70.1698 76.3214 70.886 76.1826C71.6023 76.0438 72.1414 75.8356 72.5111 75.5581C72.8731 75.2805 73.0579 74.9258 73.0579 74.5018C73.0579 74.0777 72.8731 73.7153 72.5111 73.43C72.1491 73.1447 71.61 72.9366 70.8937 72.8055C70.1775 72.6744 69.2841 72.6127 68.2058 72.6127C67.1353 72.6127 66.2418 72.6667 65.5333 72.8055H65.541ZM73.9205 59.1967H67.143V56.1743H73.9205V59.1967ZM73.9205 63.5145H67.143V60.5229H73.9205V63.5145ZM76.9396 69.2125H72.9809V54.0925H76.9396V69.2125Z" fill="white"/>
<path d="M83.1627 82.6131H79.9587L81.2603 74.6406H85.6119L83.155 82.6131H83.1627Z" fill="white"/>
<path d="M54.227 105.798H31.1216V102.591H54.227V105.798ZM52.2784 92.2124H33.1934V89.0589H52.2784V92.2124ZM52.0243 100.709H33.3628V97.6174H52.0243V100.709ZM40.2405 99.2828H36.2664V91.5879H40.2405V99.2828ZM44.6151 113.262H40.6872V104.025H44.6151V113.262ZM49.1361 99.2828H45.2082V91.5879H49.1361V99.2828Z" fill="white"/>
<path d="M78.6416 110.517H55.5439V107.286H78.6416V110.517ZM76.0692 98.2805H62.0905V102.298H58.1241V95.1424H72.1413V92.783H58.0932V89.6218H76.0692V98.2805ZM76.6469 103.878H58.1241V100.771H76.6469V103.878Z" fill="white"/>
<path d="M103.018 103.77H79.9124V100.671H103.018V103.77ZM100.284 95.4199H86.6822V98.0029H82.7466V92.5902H96.3095V91.4491H82.7158V88.4035H100.284V95.4199ZM100.723 99.5527H82.7466V96.5456H100.723V99.5527ZM100.407 113.03H82.8159V105.104H100.407V113.03ZM86.6976 109.861H96.4789V108.219H86.6976V109.861Z" fill="white"/>
<defs>
<linearGradient id="paint0_linear_2511_993" x1="74.01" y1="15.6729" x2="111.021" y2="52.6239" gradientUnits="userSpaceOnUse">
<stop offset="0.1" stop-color="#F5A749"/>
<stop offset="0.37" stop-color="#F29842"/>
<stop offset="0.89" stop-color="#ED7130"/>
<stop offset="1" stop-color="#EC682C"/>
</linearGradient>
<linearGradient id="paint1_linear_2511_993" x1="57.1844" y1="11.1381" x2="68.6545" y2="142.073" gradientUnits="userSpaceOnUse">
<stop stop-color="#87C7E3"/>
<stop offset="0.14" stop-color="#83C5DB"/>
<stop offset="0.36" stop-color="#7AC0C7"/>
<stop offset="0.62" stop-color="#6AB8A5"/>
<stop offset="0.91" stop-color="#55AE77"/>
<stop offset="1" stop-color="#4FAB68"/>
</linearGradient>
<linearGradient id="paint2_linear_2511_993" x1="17.8899" y1="14.5153" x2="29.1516" y2="143.052" gradientUnits="userSpaceOnUse">
<stop stop-color="#8CC9E4"/>
<stop offset="0.19" stop-color="#89C7DC"/>
<stop offset="0.46" stop-color="#83C3C8"/>
<stop offset="0.8" stop-color="#79BCA6"/>
<stop offset="1" stop-color="#73B88F"/>
</linearGradient>
</defs>
</svg>
