<svg width="30" height="30" viewBox="10 0 30 30" fill="currentColor" xmlns="http://www.w3.org/2000/svg">
<g id="Group">
<path id="Vector" d="M27.5138 18.845L25.4937 18.9069C23.8367 18.9569 22.2273 19.5331 20.8393 20.5732C19.4513 21.6133 18.3376 23.0778 17.6186 24.8083C17.5872 24.4922 17.5667 24.1748 17.5571 23.857C17.3582 17.3638 21.7192 11.9618 27.2978 11.7909L27.0998 5.32472L38.0116 14.9932L27.7118 25.3112L27.5138 18.845ZM25.4217 16.5555L29.462 16.4318L29.5811 20.3209L34.8006 15.0915L29.2709 10.1913L29.39 14.0804L27.3698 14.1423C26.2084 14.1763 25.0694 14.502 24.0307 15.097C22.992 15.692 22.0781 16.5424 21.3516 17.5898C22.6375 16.9482 24.0186 16.5972 25.4217 16.5555Z" fill="currentColor"/>
</g>
</svg>
