<svg width="24" height="24" viewBox="0 0 24 24" fill="none" xmlns="http://www.w3.org/2000/svg">
<path d="M15.3883 16.4211C15.2365 16.7477 15.1515 17.1136 15.1515 17.5C15.1515 18.8807 16.2369 20 17.5758 20C18.9146 20 20 18.8807 20 17.5C20 16.1193 18.9146 15 17.5758 15C16.6115 15 15.7788 15.5805 15.3883 16.4211ZM15.3883 16.4211L8.61174 13.0789M15.3883 7.57889C15.7788 8.41949 16.6115 9 17.5758 9C18.9146 9 20 7.88071 20 6.5C20 5.11929 18.9146 4 17.5758 4C16.2369 4 15.1515 5.11929 15.1515 6.5C15.1515 6.88637 15.2365 7.25226 15.3883 7.57889ZM15.3883 7.57889L8.61174 10.9211M8.61174 10.9211C8.22119 10.0805 7.38846 9.5 6.42424 9.5C5.08537 9.5 4 10.6193 4 12C4 13.3807 5.08537 14.5 6.42424 14.5C7.38846 14.5 8.22119 13.9195 8.61174 13.0789M8.61174 10.9211C8.76349 11.2477 8.84848 11.6136 8.84848 12C8.84848 12.3864 8.76349 12.7523 8.61174 13.0789" stroke="#505050" stroke-width="1.5" stroke-linecap="round" stroke-linejoin="round"/>
</svg>
