<svg width="100%" height="100%" viewBox="0 0 18 18" fill="none" xmlns="http://www.w3.org/2000/svg">
<path d="M3.75 14.3336C3.75 12.5238 5.02299 10.9822 6.75303 10.697L6.90886 10.6713C8.29419 10.4429 9.70581 10.4429 11.0911 10.6713L11.247 10.697C12.977 10.9822 14.25 12.5238 14.25 14.3336C14.25 15.1159 13.6361 15.75 12.8789 15.75H5.1211C4.36386 15.75 3.75 15.1159 3.75 14.3336Z" fill="none"/>
<path d="M12.0625 5.20312C12.0625 6.83409 10.6914 8.15625 9.00002 8.15625C7.30864 8.15625 5.93752 6.83409 5.93752 5.20312C5.93752 3.57216 7.30864 2.25 9.00002 2.25C10.6914 2.25 12.0625 3.57216 12.0625 5.20312Z" fill="none"/>
<path d="M3.75 14.3336C3.75 12.5238 5.02299 10.9822 6.75303 10.697L6.90886 10.6713C8.29419 10.4429 9.70581 10.4429 11.0911 10.6713L11.247 10.697C12.977 10.9822 14.25 12.5238 14.25 14.3336C14.25 15.1159 13.6361 15.75 12.8789 15.75H5.1211C4.36386 15.75 3.75 15.1159 3.75 14.3336Z" stroke="currentColor"/>
<path d="M12.0625 5.20312C12.0625 6.83409 10.6914 8.15625 9.00002 8.15625C7.30864 8.15625 5.93752 6.83409 5.93752 5.20312C5.93752 3.57216 7.30864 2.25 9.00002 2.25C10.6914 2.25 12.0625 3.57216 12.0625 5.20312Z" stroke="currentColor"/>
</svg>
